<svg width="875" height="1062" viewBox="0 0 875 1062" fill="none" xmlns="http://www.w3.org/2000/svg">
<circle cx="443.002" cy="30" r="22" fill="#0D6DDD" stroke="black" stroke-width="16"/>
<path d="M420.245 38.169L4.00197 279" stroke="black" stroke-width="16"/>
<line x1="11.0019" y1="277.016" x2="9.99993" y2="777.016" stroke="black" stroke-width="16"/>
<line x1="7.22264" y1="769.204" x2="387.223" y2="1005.2" stroke="black" stroke-width="16"/>
<circle cx="435.002" cy="1032" r="22" fill="#0D6DDD" stroke="black" stroke-width="16"/>
<path d="M867.759 776.851L454.237 1018.86" stroke="black" stroke-width="16"/>
<path d="M867.002 778.992L866.625 276.991" stroke="black" stroke-width="16"/>
<path d="M869.714 284.248L493.002 50.0596" stroke="black" stroke-width="16"/>
<path d="M420.502 37.5C117.502 209 223.002 471.5 442.002 514.5C646.502 554.653 787.502 828.5 455.002 1017" stroke="black" stroke-width="16"/>
<path d="M444.177 220.312L446.906 234.872L451.876 220.917L453.074 217.555L453.19 221.405L453.633 236.068L460.694 223.21L462.417 220.073L461.905 224.157L460.116 238.444L469.018 227.127L471.299 224.228L470.073 228.48L466.188 241.963L476.599 232.556L479.479 229.953L477.464 234.242L471.676 246.561L483.209 239.332L486.715 237.134L483.874 241.272L476.408 252.143L488.655 247.251L492.767 245.608L489.127 249.368L480.218 258.571L492.781 256.073L497.412 255.152L493.083 258.301L482.962 265.664L495.477 265.536L500.466 265.485L495.634 267.824L484.525 273.202L496.677 275.363L501.8 276.274L496.707 277.674L484.841 280.938L496.359 285.275L501.354 287.155L496.266 287.579L483.896 288.608L494.54 294.995L499.148 297.76L494.313 297.259L481.731 295.953L491.275 304.255L495.278 307.737L490.891 306.435L478.438 302.739L486.655 312.8L489.904 316.778L486.088 314.837L474.147 308.763L480.803 320.39L483.231 324.63L480.038 322.213L469.016 313.868L473.879 326.809L475.492 331.1L472.916 328.338L463.214 317.936L466.073 331.87L466.93 336.051L464.934 333.029L456.915 320.889L457.601 335.422L457.788 339.394L456.331 336.145L450.29 322.678L448.704 337.353L448.302 341.077L447.364 337.599L443.502 323.277L439.64 337.599L438.702 341.077L438.3 337.353L436.714 322.678L430.673 336.145L429.216 339.394L429.403 335.422L430.088 320.889L422.07 333.029L420.074 336.051L420.931 331.87L423.79 317.936L414.088 328.338L411.512 331.1L413.124 326.809L417.988 313.868L406.966 322.213L403.773 324.63L406.201 320.39L412.857 308.763L400.916 314.837L397.1 316.778L400.349 312.8L408.566 302.739L396.113 306.435L391.726 307.737L395.729 304.255L405.273 295.953L392.691 297.259L387.856 297.76L392.464 294.995L403.108 288.608L390.738 287.579L385.65 287.155L390.645 285.275L402.163 280.938L390.297 277.674L385.204 276.274L390.327 275.363L402.479 273.202L391.37 267.824L386.537 265.485L391.527 265.536L404.042 265.664L393.921 258.301L389.592 255.152L394.223 256.073L406.786 258.571L397.877 249.368L394.237 245.608L398.349 247.251L410.596 252.143L403.13 241.272L400.289 237.134L403.795 239.332L415.328 246.561L409.54 234.242L407.525 229.953L410.405 232.556L420.816 241.963L416.931 228.48L415.705 224.228L417.986 227.127L426.888 238.444L425.099 224.157L424.587 220.073L426.31 223.21L433.371 236.068L433.814 221.405L433.93 217.555L435.128 220.917L440.098 234.872L442.827 220.312L443.502 216.712L444.177 220.312Z" stroke="black" stroke-width="8"/>
<line x1="432.002" y1="757" x2="432.002" y2="655" stroke="black" stroke-width="8"/>
<line x1="432.431" y1="706.269" x2="470.733" y2="674.13" stroke="black" stroke-width="8"/>
<line x1="433.293" y1="709.23" x2="394.99" y2="677.091" stroke="black" stroke-width="8"/>
<line x1="432.431" y1="676.714" x2="451.582" y2="660.645" stroke="black" stroke-width="8"/>
<line x1="432.582" y1="679.134" x2="413.431" y2="663.064" stroke="black" stroke-width="8"/>
<line x1="433.431" y1="736.32" x2="476.329" y2="700.324" stroke="black" stroke-width="8"/>
<line x1="432.582" y1="740.134" x2="389.683" y2="704.138" stroke="black" stroke-width="8"/>
<line x1="434.989" y1="759.063" x2="332.99" y2="758.75" stroke="black" stroke-width="8"/>
<line x1="384.26" y1="758.478" x2="352.239" y2="720.078" stroke="black" stroke-width="8"/>
<line x1="387.224" y1="757.626" x2="354.967" y2="795.829" stroke="black" stroke-width="8"/>
<line x1="354.705" y1="758.388" x2="338.694" y2="739.187" stroke="black" stroke-width="8"/>
<line x1="357.125" y1="758.244" x2="340.997" y2="777.345" stroke="black" stroke-width="8"/>
<line x1="414.314" y1="757.571" x2="378.449" y2="714.562" stroke="black" stroke-width="8"/>
<line x1="418.125" y1="758.431" x2="381.997" y2="801.219" stroke="black" stroke-width="8"/>
<line x1="433.977" y1="755.096" x2="535.975" y2="754.459" stroke="black" stroke-width="8"/>
<line x1="484.709" y1="755.208" x2="517.087" y2="793.309" stroke="black" stroke-width="8"/>
<line x1="481.754" y1="756.088" x2="513.654" y2="717.586" stroke="black" stroke-width="8"/>
<line x1="514.264" y1="755.023" x2="530.453" y2="774.074" stroke="black" stroke-width="8"/>
<line x1="511.845" y1="755.19" x2="527.795" y2="735.939" stroke="black" stroke-width="8"/>
<line x1="454.666" y1="756.395" x2="490.929" y2="799.068" stroke="black" stroke-width="8"/>
<line x1="450.846" y1="755.57" x2="486.574" y2="712.448" stroke="black" stroke-width="8"/>
<line x1="436.118" y1="758.016" x2="435.704" y2="860.015" stroke="black" stroke-width="8"/>
<line x1="435.483" y1="808.745" x2="397.051" y2="840.728" stroke="black" stroke-width="8"/>
<line x1="434.633" y1="805.78" x2="472.805" y2="838.075" stroke="black" stroke-width="8"/>
<line x1="435.363" y1="838.299" x2="416.147" y2="854.291" stroke="black" stroke-width="8"/>
<line x1="435.222" y1="835.879" x2="454.307" y2="852.027" stroke="black" stroke-width="8"/>
<line x1="434.605" y1="778.69" x2="391.561" y2="814.512" stroke="black" stroke-width="8"/>
<line x1="435.469" y1="774.88" x2="478.221" y2="811.05" stroke="black" stroke-width="8"/>
</svg>
