<svg width="128" height="134" viewBox="0 0 128 134" fill="none" xmlns="http://www.w3.org/2000/svg">
<circle cx="64" cy="67" r="63.5" fill="#EE72C5" stroke="black"/>
<path d="M81.7267 37.418L81.8172 37.5058L81.9384 37.5402L105.033 44.0984L99.1652 67.3778L99.1344 67.5L99.1652 67.6222L105.033 90.9016L81.9384 97.4598L81.8172 97.4942L81.7267 97.582L64.5 114.303L47.2732 97.582L47.1828 97.4942L47.0616 97.4598L23.9672 90.9016L29.8348 67.6222L29.8656 67.5L29.8348 67.3778L23.9672 44.0984L47.0616 37.5402L47.1828 37.5058L47.2732 37.418L64.5 20.6968L81.7267 37.418Z" fill="#FDD998" stroke="black"/>
<path d="M111.852 44.1193C111.29 44.1193 110.788 44.0227 110.348 43.8295C109.911 43.6364 109.563 43.3679 109.304 43.0241C109.048 42.6776 108.909 42.2756 108.886 41.8182H109.96C109.983 42.0994 110.08 42.3423 110.25 42.5469C110.42 42.7486 110.643 42.9048 110.919 43.0156C111.195 43.1264 111.5 43.1818 111.835 43.1818C112.21 43.1818 112.543 43.1165 112.832 42.9858C113.122 42.8551 113.349 42.6733 113.514 42.4403C113.679 42.2074 113.761 41.9375 113.761 41.6307C113.761 41.3097 113.682 41.027 113.523 40.7827C113.364 40.5355 113.131 40.3423 112.824 40.2031C112.517 40.0639 112.142 39.9943 111.699 39.9943H111V39.0568H111.699C112.045 39.0568 112.349 38.9943 112.611 38.8693C112.875 38.7443 113.081 38.5682 113.229 38.3409C113.379 38.1136 113.455 37.8466 113.455 37.5398C113.455 37.2443 113.389 36.9872 113.259 36.7685C113.128 36.5497 112.943 36.3793 112.705 36.2571C112.469 36.1349 112.19 36.0739 111.869 36.0739C111.568 36.0739 111.284 36.1293 111.017 36.2401C110.753 36.348 110.537 36.5057 110.369 36.7131C110.202 36.9176 110.111 37.1648 110.097 37.4545H109.074C109.091 36.9972 109.229 36.5966 109.487 36.2528C109.746 35.9062 110.084 35.6364 110.501 35.4432C110.922 35.25 111.384 35.1534 111.886 35.1534C112.426 35.1534 112.889 35.2628 113.276 35.4815C113.662 35.6974 113.959 35.983 114.166 36.3381C114.374 36.6932 114.477 37.0767 114.477 37.4886C114.477 37.9801 114.348 38.3991 114.089 38.7457C113.834 39.0923 113.486 39.3324 113.045 39.4659V39.5341C113.597 39.625 114.027 39.8594 114.337 40.2372C114.646 40.6122 114.801 41.0767 114.801 41.6307C114.801 42.1051 114.672 42.5312 114.413 42.9091C114.158 43.2841 113.808 43.5795 113.365 43.7955C112.922 44.0114 112.418 44.1193 111.852 44.1193Z" fill="black"/>
<path d="M64.9716 8.27273V17H63.9148V9.38068H63.8636L61.733 10.7955V9.72159L63.9148 8.27273H64.9716Z" fill="black"/>
<path d="M111.631 100.119C111.131 100.119 110.68 100.02 110.28 99.821C109.879 99.6222 109.558 99.3494 109.317 99.0028C109.075 98.6562 108.943 98.2614 108.92 97.8182H109.943C109.983 98.2131 110.162 98.5398 110.48 98.7983C110.801 99.054 111.185 99.1818 111.631 99.1818C111.989 99.1818 112.307 99.098 112.585 98.9304C112.866 98.7628 113.087 98.5327 113.246 98.2401C113.408 97.9446 113.489 97.6108 113.489 97.2386C113.489 96.858 113.405 96.5185 113.237 96.2202C113.072 95.919 112.845 95.6818 112.555 95.5085C112.266 95.3352 111.935 95.2472 111.562 95.2443C111.295 95.2415 111.021 95.2827 110.74 95.3679C110.459 95.4503 110.227 95.5568 110.045 95.6875L109.057 95.5682L109.585 91.2727H114.119V92.2102H110.472L110.165 94.7841H110.216C110.395 94.642 110.619 94.5241 110.889 94.4304C111.159 94.3366 111.44 94.2898 111.733 94.2898C112.267 94.2898 112.743 94.4176 113.161 94.6733C113.581 94.9261 113.911 95.2727 114.149 95.7131C114.391 96.1534 114.511 96.6562 114.511 97.2216C114.511 97.7784 114.386 98.2756 114.136 98.7131C113.889 99.1477 113.548 99.4915 113.114 99.7443C112.679 99.9943 112.185 100.119 111.631 100.119Z" fill="black"/>
<path d="M62.1761 127L66.0795 119.278V119.21H61.5795V118.273H67.1705V119.261L63.2841 127H62.1761Z" fill="black"/>
<path d="M12.9716 91.2727V100H11.9148V92.3807H11.8636L9.73295 93.7955V92.7216L11.9148 91.2727H12.9716ZM18.5497 91.2727V100H17.4929V92.3807H17.4418L15.3111 93.7955V92.7216L17.4929 91.2727H18.5497Z" fill="black"/>
<path d="M12.9716 35.2727V44H11.9148V36.3807H11.8636L9.73295 37.7955V36.7216L11.9148 35.2727H12.9716ZM18.4304 44.1193C17.8679 44.1193 17.3665 44.0227 16.9261 43.8295C16.4886 43.6364 16.1406 43.3679 15.8821 43.0241C15.6264 42.6776 15.4872 42.2756 15.4645 41.8182H16.5384C16.5611 42.0994 16.6577 42.3423 16.8281 42.5469C16.9986 42.7486 17.2216 42.9048 17.4972 43.0156C17.7727 43.1264 18.0781 43.1818 18.4134 43.1818C18.7884 43.1818 19.1207 43.1165 19.4105 42.9858C19.7003 42.8551 19.9276 42.6733 20.0923 42.4403C20.2571 42.2074 20.3395 41.9375 20.3395 41.6307C20.3395 41.3097 20.2599 41.027 20.1009 40.7827C19.9418 40.5355 19.7088 40.3423 19.402 40.2031C19.0952 40.0639 18.7202 39.9943 18.277 39.9943H17.5781V39.0568H18.277C18.6236 39.0568 18.9276 38.9943 19.1889 38.8693C19.4531 38.7443 19.6591 38.5682 19.8068 38.3409C19.9574 38.1136 20.0327 37.8466 20.0327 37.5398C20.0327 37.2443 19.9673 36.9872 19.8366 36.7685C19.706 36.5497 19.5213 36.3793 19.2827 36.2571C19.0469 36.1349 18.7685 36.0739 18.4474 36.0739C18.1463 36.0739 17.8622 36.1293 17.5952 36.2401C17.331 36.348 17.1151 36.5057 16.9474 36.7131C16.7798 36.9176 16.6889 37.1648 16.6747 37.4545H15.652C15.669 36.9972 15.8068 36.5966 16.0653 36.2528C16.3239 35.9062 16.6619 35.6364 17.0795 35.4432C17.5 35.25 17.9616 35.1534 18.4645 35.1534C19.0043 35.1534 19.4673 35.2628 19.8537 35.4815C20.2401 35.6974 20.5369 35.983 20.7443 36.3381C20.9517 36.6932 21.0554 37.0767 21.0554 37.4886C21.0554 37.9801 20.9261 38.3991 20.6676 38.7457C20.4119 39.0923 20.0639 39.3324 19.6236 39.4659V39.5341C20.1747 39.625 20.6051 39.8594 20.9148 40.2372C21.2244 40.6122 21.3793 41.0767 21.3793 41.6307C21.3793 42.1051 21.25 42.5312 20.9915 42.9091C20.7358 43.2841 20.3864 43.5795 19.9432 43.7955C19.5 44.0114 18.9957 44.1193 18.4304 44.1193Z" fill="black"/>
<path d="M43.1695 46.1695L64 37.5412L84.8305 46.1695L93.4588 67L84.8305 87.8305L64 96.4588L43.1695 87.8305L34.5412 67L43.1695 46.1695Z" fill="#EE72C5" stroke="black"/>
<circle cx="112" cy="39" r="11.5" stroke="black"/>
<circle cx="112" cy="39" r="11.5" stroke="black"/>
<circle cx="112" cy="39" r="11.5" stroke="black"/>
<circle cx="64" cy="12" r="11.5" stroke="black"/>
<circle cx="16" cy="39" r="11.5" stroke="black"/>
<circle cx="16" cy="95" r="11.5" stroke="black"/>
<circle cx="64" cy="122" r="11.5" stroke="black"/>
<circle cx="112" cy="95" r="11.5" stroke="black"/>
</svg>
